PathFileType	3	(X/Y/Z)	results
DataRate	CameraRate	NumFrames	NumMarkers	Units	OrigDataRate	OrigDataStartFrame	OrigNumFrames
30.0	30.0	4	85	mm	30.0	230	262
Frame#	Time	head			nose			neck			shoulder_r			elbow_r			wrist_r			shoulder_l			elbow_l			wrist_l			hip_r			knee_r			ankle_r			hip_l			knee_l			ankle_l			heel_r			heel_l			mtoe_r			ltoe_r			mtoe_l			ltoe_l			asis_l			asis_r			psi_r			psi_l			mhnd_r			lhnd_r			mhnd_l			lhnd_l			l_lat_knee			r_med_wrist			l_lat_ankle			r_med_ankle			r_lat_knee			xiphoid			l_med_ankle			r_med_knee			l_med_elbow			navel			r_lat_elbow			r_lat_wrist			l_med_wrist			l_lat_elbow			l_med_knee			r_med_elbow			r_lat_ankle			l_lat_wrist			chin			T10			r_eye			l_eye			l_ear			r_ear			spinal_cord_8			spinal_cord_12			spinal_cord_27			spinal_cord_33			up_arm_r_0			up_arm_r_5			up_arm_l_0			up_arm_l_5			front_torso_11			front_torso_7			front_torso_4			front_torso_1			front_torso_10			thigh_r_2			thigh_r_3			thigh_l_1			thigh_l_5			shank_l_0			shank_l_4			shank_r_1			shank_r_2			foot_r_1			foot_r_3			foot_r_5			foot_r_6			foot_r_7			foot_l_1			foot_l_7			foot_l_0			foot_l_4			foot_l_5			foot_l_6			
		X1	Y1	Z1	X2	Y2	Z2	X3	Y3	Z3	X4	Y4	Z4	X5	Y5	Z5	X6	Y6	Z6	X7	Y7	Z7	X8	Y8	Z8	X9	Y9	Z9	X10	Y10	Z10	X11	Y11	Z11	X12	Y12	Z12	X13	Y13	Z13	X14	Y14	Z14	X15	Y15	Z15	X16	Y16	Z16	X17	Y17	Z17	X18	Y18	Z18	X19	Y19	Z19	X20	Y20	Z20	X21	Y21	Z21	X22	Y22	Z22	X23	Y23	Z23	X24	Y24	Z24	X25	Y25	Z25	X26	Y26	Z26	X27	Y27	Z27	X28	Y28	Z28	X29	Y29	Z29	X30	Y30	Z30	X31	Y31	Z31	X32	Y32	Z32	X33	Y33	Z33	X34	Y34	Z34	X35	Y35	Z35	X36	Y36	Z36	X37	Y37	Z37	X38	Y38	Z38	X39	Y39	Z39	X40	Y40	Z40	X41	Y41	Z41	X42	Y42	Z42	X43	Y43	Z43	X44	Y44	Z44	X45	Y45	Z45	X46	Y46	Z46	X47	Y47	Z47	X48	Y48	Z48	X49	Y49	Z49	X50	Y50	Z50	X51	Y51	Z51	X52	Y52	Z52	X53	Y53	Z53	X54	Y54	Z54	X55	Y55	Z55	X56	Y56	Z56	X57	Y57	Z57	X58	Y58	Z58	X59	Y59	Z59	X60	Y60	Z60	X61	Y61	Z61	X62	Y62	Z62	X63	Y63	Z63	X64	Y64	Z64	X65	Y65	Z65	X66	Y66	Z66	X67	Y67	Z67	X68	Y68	Z68	X69	Y69	Z69	X70	Y70	Z70	X71	Y71	Z71	X72	Y72	Z72	X73	Y73	Z73	X74	Y74	Z74	X75	Y75	Z75	X76	Y76	Z76	X77	Y77	Z77	X78	Y78	Z78	X79	Y79	Z79	X80	Y80	Z80	X81	Y81	Z81	X82	Y82	Z82	X83	Y83	Z83	X84	Y84	Z84	X85	Y85	Z85	
230	7.666666666666667	88.67889045669502	1689.3517590096856	-111.57442843250435	64.58087085660677	1525.8731525822895	-232.5113530736569	71.77793638633655	1367.9384701659503	-86.3653408394446	235.37123155497648	1330.6052710064544	-104.6223197324993	249.88313559751384	1148.7666937211568	-287.76448782496766	109.8442004429157	1327.160628985458	-320.3086180186826	-70.9273360737864	1336.9103493106745	-97.82692105116176	-124.08501518623055	1142.7949133387697	-247.5420819042144	6.044555084983861	1323.104891769726	-316.3549438958016	167.79714491281544	862.7361243224742	-155.46621883241957	182.73129160705318	483.20618795402913	-80.31246830142503	252.1101574028378	111.81105998400336	-66.5789863611938	-31.377599726657476	846.3166257111412	-147.1341530680558	-36.191529745860386	479.74573354736407	-72.90560120147826	-91.00294697944258	108.88367407617561	-52.9986073878843	254.94034291131828	58.59424420311367	-50.48907406294892	-101.42584614980639	48.48488017029407	-28.43053374583332	282.3571955029726	36.02794346606307	-277.06664568645857	341.19740194805405	46.26330842913072	-208.6001839213084	-103.12917087722757	47.57242510905767	-259.13377570861127	-181.4809385525208	36.555537673781586	-198.3206083279561	-82.73297404445918	909.6234246441644	-183.13144238870342	209.30392128485647	930.3722780424201	-192.1828915959402	116.24074736704029	932.407345417992	-48.266826186416424	16.640896985630057	924.2707370175019	-50.03336282574416	55.229306919101205	1363.9344338666465	-352.6596373906512	69.76679512960399	1404.2766529075543	-320.5627675412197	52.82137290693496	1362.3789881692935	-362.00679453955615	48.60068844193333	1400.0671322028995	-324.35660269865707	-84.29527521543116	475.53221600223407	-64.66876606958347	107.9887791115261	1310.101174091845	-343.4702615451867	-142.6478092313882	102.41594765137229	-41.9377754097749	221.1755905443501	96.14836003586397	-80.3310999244746	225.51277792671812	475.9288106005265	-72.61501376624926	77.83591922078111	1208.3945675153539	-202.06505003177983	-65.739368446803	93.07840961797082	-69.22747903570779	144.34991341728946	472.4077203103016	-95.26947600983132	-103.23888978752332	1129.3590997089493	-223.5704140125776	74.10677099118132	989.4425999155247	-243.29258918218315	275.76929915027154	1174.7776980169551	-302.4371984434007	118.14091759716894	1329.902297329193	-289.74522292571964	-2.4513118574073234	1306.3583688823912	-342.7382414007934	-151.2072512510941	1168.8383681141395	-254.13053768002942	-0.766760727247344	471.13224897839217	-104.37418351655694	225.93888121930553	1132.8134202940973	-265.4167552239427	300.5547388968165	102.75672853132085	-67.61619800720769	-5.182942177248045	1332.0809360649089	-288.6969119300222	67.4631022212361	1452.3773960747185	-216.53200903987928	64.70969417406552	1196.5680598514364	-4.069827269549742	96.23049047967957	1556.0626784290762	-236.60079466369405	30.77208367846413	1556.0204162185555	-225.01784321473184	-1.8569360202851937	1547.866170523059	-119.86439695505379	160.90469614501768	1544.8918017522533	-146.25613762646904	68.94699131323286	1421.804271954972	-30.151503669626045	63.53797903666825	1297.514638163752	7.692264584736208	75.27005631472969	1045.4889437090794	-37.452554154790626	65.39116894890675	1188.4017779150586	-18.31906893203443	220.0989811370532	1268.1228251734735	-223.99244236863854	276.6643079963532	1207.4032943719083	-196.83751209092253	-105.26471690409373	1310.4009726878364	-136.0249334160295	-96.59172116604795	1171.669926282613	-177.62328392105366	116.05302535462737	1012.1215361750291	-197.34466168942117	80.00900636133301	1124.3683527449757	-243.1731333352023	19.334151570944634	1255.6233080816426	-206.36708516231977	8.609642382155467	1048.1871171149098	-204.6606021742994	152.98991983070565	1296.026540459846	-200.73932176837235	159.49443714195428	654.0531790755538	-121.61634523762727	253.20121623676368	627.2481384428196	-91.20480533124156	8.071909198615828	580.6480004505863	-107.52500215416528	-130.81901915891163	748.5354987602111	-121.04563172795392	-142.9458558505491	208.13439772738724	-58.60358337808537	-12.144049461699357	329.1780985840412	-75.80682856351184	268.3365181236068	334.55990801382205	-70.96126623921597	180.77579485365922	282.0096620107164	-79.49106250872194	304.37119132026294	33.74972432046105	-255.53174509576405	326.0459507445672	40.60121458941148	-235.99068358001034	257.8831867295385	49.99305600631764	-196.16590361970293	291.92491799319725	63.66319217830722	-178.95362465743014	323.4672629699086	56.05652280142315	-162.08323610680907	-152.29891394095384	36.34659469584716	-230.35171807209204	-164.38506545075177	67.51849670704158	-122.40755399348005	-167.02436752064514	36.79805954446675	-221.5755137736212	-134.1768888507628	35.7593114147931	-240.47587267613383	-137.64278561878012	51.927328452065424	-180.67131281260274	-104.63408300737093	63.08245355488656	-151.9720954184092	
231	7.7	87.04099351187175	1688.6999038507338	-111.51585480619848	65.90911022189289	1525.5834761663561	-233.49201468121467	71.21514465142056	1367.647888362619	-87.42263205738104	236.05631241817608	1329.9750511645987	-103.93155910405338	246.55780823920944	1148.506322658358	-287.71332218608524	107.70630904690314	1328.0966556166454	-318.7293404405832	-77.23354889937016	1337.3950778483386	-98.35834153117996	-124.46021919318467	1142.479521560254	-249.0193459427577	6.6755486774519035	1322.979160899531	-315.38118693278335	168.25486442151944	863.0302435727123	-156.67330512882157	183.19072106365843	483.6953491414084	-80.54154034333295	252.74533588419757	112.33230743899003	-66.82937640476334	-30.898875713862648	846.0738995328309	-148.93558300675298	-37.516847708049234	479.84076964111165	-73.19412914834255	-91.34591570157602	108.85428847530659	-52.92816634808374	255.75910327385026	59.4644946449112	-50.38989394562214	-102.01500747341017	48.598601373976244	-28.278005895019206	282.3861619044337	33.454503093288416	-276.69234153725154	341.36845671751536	46.25406107203871	-208.781744490862	-101.43643484695087	46.33944853476936	-258.9775534101082	-180.5329511652715	36.75613772594747	-198.89000150691118	-82.32083428789763	909.4807909882929	-184.66062175085568	209.68565703732682	930.9969420914803	-192.8616064061003	116.26554396886502	931.8997858169269	-49.165409277149244	16.69054819256583	923.5320563464704	-51.22855338737642	53.07794527014796	1365.351272892595	-350.50233427433824	68.2807547330839	1405.548128869699	-318.5315724952369	54.52361167129778	1362.1835672069558	-359.9703582030537	49.067385684805465	1400.099005099959	-322.7091653736018	-85.69989832968028	475.8178421651572	-65.33415468203962	105.4717599129594	1311.0688315116977	-341.880783524158	-143.22852150134446	102.2271913023512	-43.14848922342668	221.50052381099826	96.62488199351526	-79.80730876051146	226.03790835637844	476.3474896759802	-73.28936125253954	76.97443794370754	1208.0580214081426	-203.0741934062117	-65.61669884622422	93.0772875529432	-68.43702516284492	144.62517035207298	472.93611853156375	-95.04624405571333	-104.27422334235074	1129.2561225895818	-224.37405867088017	73.42161579509877	989.0796875132453	-244.17708121410408	272.5205354322546	1174.3014030589675	-302.62991927369353	116.33592728348599	1330.7479633865535	-288.2502716120686	-0.9965107410821739	1306.01560909772	-341.8780091139716	-151.53882161230115	1168.3198737944974	-256.5233757096515	-1.864005474056879	470.9786261434666	-104.3343812768672	222.7288236650436	1132.7282377004747	-265.11936431235785	301.15081639030933	103.25353085156247	-68.93163110589204	-5.366012673053186	1332.0820808775256	-288.1097651455199	68.95103487276896	1452.0404980382127	-217.76147176397726	64.85612645729636	1196.305832956766	-5.01030245814292	97.44681693962347	1555.9704620547216	-236.9320102137712	31.805921522357256	1555.5054347370938	-226.44267421332574	-2.52206141668096	1546.7328575618822	-121.88157539214397	160.67106332557879	1544.7998804883464	-145.5667476916178	68.57056105017519	1421.5362567736363	-31.221348537247575	63.567034313571426	1297.2559773844955	6.708826160566353	75.51336723986529	1045.228972732605	-38.37244508873448	65.48079257847128	1188.1337588865813	-19.258827087644466	218.72671916448684	1267.974248578543	-223.27186882634592	275.0133459957549	1206.6263167194593	-196.96341470186192	-110.20023447236528	1310.5409833908552	-137.51119804310585	-99.32780889250793	1171.7478513036576	-178.37932381289724	115.55681077588484	1011.8541789758871	-198.4498209811218	79.08907721305621	1124.0155563005783	-244.15209438281516	18.36967969726172	1255.182698536629	-207.10722902584226	8.015560620399418	1047.7290087712715	-205.2473028991637	151.98118471725914	1295.8213748060957	-202.16546680078835	159.8725378979684	654.4682838320164	-122.10502361507173	253.847749949344	627.5495259599661	-92.63686443183553	7.357625925047913	580.4508080714179	-107.87732679400544	-130.86917405790652	748.7267338889176	-123.2485352529198	-143.52276638516864	207.86529739284364	-60.3162682021081	-12.807384510697378	329.36067164773016	-74.77326279460041	268.9390799232672	335.05401527981417	-72.51725546859612	181.18993631034957	282.5048776081343	-78.82930458951898	304.5693626621825	32.064786950372216	-255.2556316461865	326.1936149689787	39.7573701982227	-235.9733321122519	258.0633739488603	48.31309885601887	-195.90524071859477	291.8822007106314	63.06053790991045	-179.14890951895381	323.68602939070183	56.47717277301985	-162.3391879195006	-151.03946253151653	35.95802668205092	-230.62520839155556	-163.7693065527313	67.93275564278628	-122.99030294250232	-165.84387425506668	36.66288243300735	-221.9998308684767	-132.8274278477148	35.06292567424171	-240.563608078129	-136.6655491934691	51.63169475816953	-180.8916103625045	-103.79382086754536	62.50473380053278	-151.92813608822024	
232	7.733333333333333	87.17058331236277	1688.2296616014316	-112.07960871402814	67.08559160829856	1525.258782846153	-234.42663497837756	69.91380569334875	1367.611531822764	-88.2656041479841	234.00698651441624	1328.9098136108148	-104.78617876630224	244.39987318391718	1148.8857709481674	-289.98944345611056	106.0517775107851	1329.375842351861	-317.87417864743935	-77.97271478434219	1336.8415931470906	-98.31600275476866	-124.64564537706786	1143.0144644891	-250.5456071900592	7.492186088715464	1323.7759596739825	-314.14968497019885	167.95296315501113	862.9894145050133	-157.87242052762073	183.66067147969716	483.81192543651485	-81.11444218600946	253.13871926913762	112.4562901563958	-66.82564775640873	-31.202014496300453	845.8912335337408	-150.48667473402043	-38.90368059019776	479.909356637572	-73.64123935154541	-92.94191329269135	108.98967204059568	-52.71986267766751	256.1242737583535	59.734961398531034	-50.233872016828876	-103.8405312890046	48.863076447630476	-27.941432141453305	282.74590337107935	32.00077048153997	-276.3321276242901	341.7378821440944	45.208459491021664	-208.50814684655398	-100.56977726761122	45.374915900740106	-258.6032075738653	-180.31925797935776	35.77936432592891	-199.38700751295167	-82.60465996780094	909.1974636440639	-186.4174327089396	209.4002237205436	930.9269150974338	-194.09667260434347	115.70472669544519	932.0005501925518	-50.58106067748222	16.14037418553224	923.551851840076	-52.82035730610748	51.38926123039888	1367.2450094537346	-348.85196538842035	66.917415233931	1406.9618654893288	-316.44070137979344	55.84390074860702	1363.2467025241806	-357.9536682257447	50.112887327454956	1400.862046387505	-320.43049252168294	-87.1567715252943	475.96784493808457	-66.17979096490562	103.62655220425087	1312.6623496895786	-341.2345460605053	-144.9065315992068	102.39607091118313	-43.36207690426634	221.8960686612802	96.73566129168488	-79.79279219681752	226.51665573099734	476.57198130296774	-73.805925101027	76.13628977229018	1208.24374078987	-204.1990618268587	-67.0833346576275	93.1641253041598	-67.96181272670229	145.13450702142063	472.94280263096675	-95.64186440605155	-104.6955940628077	1129.5734840915154	-225.82601188489792	73.07054186082144	989.3338058490924	-245.70354617157605	270.3550815798576	1174.7961701687207	-304.7180759182	114.85848261665835	1331.5943447960415	-287.4111917200774	0.03697716415432262	1307.0504988081443	-340.8589153947583	-151.58157698894448	1168.988795068215	-258.10038809171016	-2.997266373411831	470.90632424126943	-104.44794114071144	220.58302225551728	1132.9318703789484	-267.5064260506192	301.5432935983875	103.36517663134848	-68.89519868818788	-4.789087002192299	1332.6773927865572	-286.9186802514691	70.2648818917854	1451.6984676919967	-218.80469317449834	63.791202770933474	1196.107782869173	-6.172322075776532	98.5515694363641	1555.7419676946085	-237.66655881635418	32.86341727625011	1555.0707641930478	-227.48885165972683	-1.9332251623354195	1546.0236262963142	-123.10621478687523	161.3749678187646	1544.5992230794698	-146.02181931935397	67.09115890736936	1421.392373313222	-31.970061736210475	62.28670617380481	1297.0337168601427	5.728254891583032	74.79076894980533	1045.1132210777207	-39.79491701543297	64.45010302976328	1187.9628589500692	-20.434843637196444	216.60866251255567	1267.846086969757	-224.5987134148043	272.90802554580534	1206.2924248280533	-198.8030498093714	-110.71829818691326	1310.337254900961	-137.89046095199004	-99.97254877687635	1171.7642307895453	-179.53169910280656	115.10260757442546	1012.1087905262351	-199.8817176324521	78.4698139119472	1124.280390114345	-245.42662539381894	17.44314257450686	1255.2592491015832	-208.2208412972182	7.498951224550035	1047.7823801450302	-206.75032754467827	150.967279126847	1296.1540057733268	-203.03613964300604	160.0026593786091	654.4650090762468	-122.97706917413396	254.0072682380512	627.8047865158039	-93.36797500807437	6.385208117957827	580.3558001884778	-108.25988971920643	-131.50408248330186	748.7433957571747	-125.34411310881413	-145.04369302294396	207.98214928591528	-60.84892664020784	-14.197376576082586	329.4232478250086	-74.55814888208546	269.3773686695859	335.1662514871714	-72.83629227050831	181.62068489581918	282.62459041206534	-79.10560989225468	304.9233008160328	30.734233366123277	-254.8817858071068	326.55691456534834	38.53463513057278	-235.6533774323074	258.4341625145853	47.49886777465096	-195.66193624311285	292.2742527513669	62.3152800678617	-179.00970345026897	324.06455232372355	55.805185644648034	-162.14594114203297	-150.45565048731558	34.93611541210015	-230.7729930458224	-164.56894103128568	67.43104303889808	-123.46688976882226	-165.36216523478672	35.624630358857644	-222.32394985873927	-132.12571356814598	34.06470610787444	-240.49437462623746	-136.72624752731244	50.935458070155704	-180.96106116803585	-104.23897516936478	62.101336797896906	-151.67699331254266	
233	7.766666666666667	84.81691934043779	1687.7039860975685	-111.81048932258459	69.92124110240894	1525.250636179786	-235.5793744273197	68.8572314996664	1367.7019093130505	-89.02101557488815	234.09260285147818	1328.4000058463114	-105.26343996010296	244.19918840462458	1149.7408744897148	-291.79946595254876	105.83574289934575	1330.4109375251612	-318.4134693916899	-77.69831383926582	1335.3056203924245	-97.33494535369893	-122.04941546253266	1142.8144226004456	-251.93536345744005	8.794808844279162	1324.8685765913588	-314.5187265535353	167.07108422454826	862.7697286087943	-159.84817397818765	183.0691835129268	483.7855207021953	-82.20077522740635	253.0291988559068	112.55836736423896	-66.95697311010281	-32.014531781504225	845.5406481661656	-151.03463647384177	-40.104920791007025	479.57124931953626	-74.16971905569737	-95.00121456835447	108.7924011888064	-52.987421601931	256.02486614521365	59.99049321480017	-50.17407471642505	-106.0315705866744	48.65582395702832	-28.196994105721064	283.69670887985285	30.64447263681784	-275.94253552018785	342.3531939085679	44.602750822423914	-207.978043237562	-101.4007973059439	45.256626592136435	-258.836802329711	-181.39476291628253	34.888244900397225	-200.08244282763988	-83.71252819278642	908.4945887432543	-187.1600933398469	208.21438156624293	930.4424013032525	-196.90508005373405	115.44492242623924	932.6240982707077	-52.80165410191115	15.876907247220643	924.0603992126029	-54.32764745486091	51.158425619064204	1368.4853766631484	-349.11226144971624	66.70096652487034	1407.984981883002	-316.4434251616957	56.83563586634755	1364.9425107968868	-358.1166111017207	50.88365213233308	1402.2813319936392	-320.35242641603685	-88.33193205295089	475.72598375596436	-66.49255624771087	103.39998164661631	1313.8539109007659	-341.8839030671	-146.94029695942424	102.33262388563912	-43.397412021974624	221.83299957681098	96.76611262875679	-79.94889616843568	225.93252686427968	476.59291987548113	-74.88866956093544	74.96825855490724	1208.755658862334	-205.53763907636346	-69.25164370197587	92.89987728017074	-68.34379955511255	144.54612407987273	472.8551153953911	-96.69040277727795	-102.0500309251322	1129.278662018162	-227.30751951760016	72.04973105327035	989.9916071379575	-247.81473118437742	270.14999882026245	1175.7474421775078	-306.3654578762156	114.65645903179028	1332.4259342614064	-287.9403970897866	1.4287209886260366	1308.2608938697854	-341.32599787081233	-149.2072506057755	1168.6179486961105	-259.2780473446553	-4.3548259199145365	470.4978286798555	-105.13715039841914	220.39982668762772	1133.6324357880749	-269.4083072591531	301.4500693011567	103.52932053669673	-68.91396592837638	-3.5213472095173697	1333.5147631926295	-287.22131723511984	73.03745542392518	1451.6311230226904	-220.22589245013086	63.14226441896473	1195.8996636210686	-7.52465578178238	101.28444526826421	1555.9442709463888	-237.59918504284116	35.29501837493757	1554.8139186872297	-229.65642649323314	-2.9567987948999757	1545.00891550266	-126.55913115816242	161.03924896279995	1544.713690880993	-143.935232925886	66.11599349313444	1421.278454699759	-32.52700049051414	61.55145502141633	1296.7807233397061	4.739622004605967	74.23058799407835	1045.0388046495175	-41.71350407843674	63.7742045922748	1187.80639426323	-21.817769480618935	216.53440427270564	1268.2285946650318	-225.50334509724053	272.8340039977684	1206.4612563922603	-200.2241272425674	-110.06631867009695	1308.9507280152272	-137.31772703408308	-97.87333265301122	1170.9753244434612	-180.5157126085836	114.17216128285501	1012.6520990328916	-202.0191263243137	77.29369305979705	1124.9425464062376	-247.07023018292108	16.21073610697648	1255.716788613728	-209.24224541864677	6.510172305991775	1048.224551762658	-208.4864592068037	149.70029809202117	1296.7483441307697	-204.25169540635824	159.27819471408313	654.3227099334553	-124.45846058458321	253.31076456084202	627.798404176375	-94.81610198674262	5.229598290792774	579.9284852122383	-108.98679818824141	-132.39737167944182	748.5925918775168	-125.44722808443335	-146.88447266176442	207.9179680998799	-60.88914276272017	-15.78934318515306	329.022170177956	-75.18882748351612	268.97374872324775	335.2766247205167	-73.42981077930891	181.30138158470578	282.6005045604078	-79.75028893725163	305.7894932805742	29.629568172549575	-254.39173311930708	327.31185566605404	37.66220458130456	-235.1341146309715	258.9883244089922	46.65834307989336	-195.4938982978685	292.6999077985751	61.7358512277698	-178.8153932425314	324.4452795947331	55.48106798131455	-161.77133235459803	-151.34441008884903	34.33690090906959	-231.296198189483	-166.38326424468062	66.66929233737268	-124.06675063821463	-166.3051617716648	34.881503868047616	-222.93295227489475	-132.95138810686282	33.64228835005777	-240.91209425960025	-138.05461447947584	50.45363175310682	-181.40294866525159	-105.84403309700825	61.92064773658508	-151.93020982704198	
